<svg width="34" height="33" viewBox="0 0 34 33" fill="none" xmlns="http://www.w3.org/2000/svg">
<path d="M22.4382 18.3605C13.8824 17.3659 8.02939 12.2155 5.14304 8.59138C2.26242 4.97299 4.09294 2.21203 3.96096 1.81189C4.25935 2.69219 8.40812 14.2848 22.53 18.3262C22.5989 18.3433 22.6563 18.3605 22.7251 18.3834C22.6333 18.3834 22.5358 18.3719 22.4382 18.3605Z" fill="#F05A28"/>
<path d="M21.3813 17.4861C21.3297 17.4575 21.2838 17.4289 21.2321 17.4003C10.0998 11.3411 8.79725 0.800277 8.71117 0C8.7456 0.360125 6.99542 3.74415 8.68248 7.08817C10.3695 10.4322 14.1224 14.9652 21.1403 17.406C21.2206 17.4346 21.301 17.4575 21.3813 17.4861Z" fill="#F6921E"/>
<path d="M2.64641 32.6628C8.63144 24.8143 13.6811 31.8225 22.2254 28.0897C28.176 25.4888 25.9553 22.6879 31.4641 20.4585C32.5142 20.0355 34.0061 20.0927 34.0061 20.0927C34.0061 20.0927 33.8282 19.8697 33.0651 19.3896C32.3019 18.9151 31.7912 18.8751 31.7912 18.8751C31.7912 18.8751 31.6247 18.4178 30.655 17.7833C29.6852 17.1488 27.935 17.1088 26.4775 17.8119C25.4963 18.2863 24.2281 18.8523 22.4722 18.6636C13.113 17.6518 4.86138 11.5697 0.25354 6.27075C0.259278 7.22537 17.52 28.77 2.64641 32.6628Z" fill="#EE4036"/>
</svg>
