<svg width="12" height="14" viewBox="0 0 12 14" fill="none" xmlns="http://www.w3.org/2000/svg">
<path d="M0.833354 7.00004C0.656543 7.00004 0.486974 7.07028 0.361949 7.1953C0.236925 7.32033 0.166687 7.4899 0.166687 7.66671V13C0.166687 13.1769 0.236925 13.3464 0.361949 13.4714C0.486974 13.5965 0.656543 13.6667 0.833354 13.6667C1.01016 13.6667 1.17973 13.5965 1.30476 13.4714C1.42978 13.3464 1.50002 13.1769 1.50002 13V7.66671C1.50002 7.4899 1.42978 7.32033 1.30476 7.1953C1.17973 7.07028 1.01016 7.00004 0.833354 7.00004ZM4.16669 0.333374C3.98988 0.333374 3.82031 0.403612 3.69528 0.528636C3.57026 0.65366 3.50002 0.82323 3.50002 1.00004V13C3.50002 13.1769 3.57026 13.3464 3.69528 13.4714C3.82031 13.5965 3.98988 13.6667 4.16669 13.6667C4.3435 13.6667 4.51307 13.5965 4.63809 13.4714C4.76312 13.3464 4.83335 13.1769 4.83335 13V1.00004C4.83335 0.82323 4.76312 0.65366 4.63809 0.528636C4.51307 0.403612 4.3435 0.333374 4.16669 0.333374ZM10.8334 9.66671C10.6565 9.66671 10.487 9.73695 10.3619 9.86197C10.2369 9.98699 10.1667 10.1566 10.1667 10.3334V13C10.1667 13.1769 10.2369 13.3464 10.3619 13.4714C10.487 13.5965 10.6565 13.6667 10.8334 13.6667C11.0102 13.6667 11.1797 13.5965 11.3048 13.4714C11.4298 13.3464 11.5 13.1769 11.5 13V10.3334C11.5 10.1566 11.4298 9.98699 11.3048 9.86197C11.1797 9.73695 11.0102 9.66671 10.8334 9.66671ZM7.50002 4.33337C7.32321 4.33337 7.15364 4.40361 7.02862 4.52864C6.90359 4.65366 6.83335 4.82323 6.83335 5.00004V13C6.83335 13.1769 6.90359 13.3464 7.02862 13.4714C7.15364 13.5965 7.32321 13.6667 7.50002 13.6667C7.67683 13.6667 7.8464 13.5965 7.97142 13.4714C8.09645 13.3464 8.16669 13.1769 8.16669 13V5.00004C8.16669 4.82323 8.09645 4.65366 7.97142 4.52864C7.8464 4.40361 7.67683 4.33337 7.50002 4.33337Z" fill="#EA8D51"/>
</svg>
