<svg width="14" height="12" viewBox="0 0 14 12" fill="none" xmlns="http://www.w3.org/2000/svg">
<path d="M13 5.33333H5.27331L6.80665 3.80667C6.86881 3.74451 6.91811 3.67071 6.95175 3.5895C6.98539 3.50829 7.00271 3.42124 7.00271 3.33333C7.00271 3.24543 6.98539 3.15838 6.95175 3.07717C6.91811 2.99595 6.86881 2.92216 6.80665 2.86C6.74449 2.79784 6.67069 2.74853 6.58948 2.71489C6.50827 2.68125 6.42122 2.66394 6.33331 2.66394C6.24541 2.66394 6.15836 2.68125 6.07715 2.71489C5.99593 2.74853 5.92214 2.79784 5.85998 2.86L3.19331 5.52667C3.13262 5.59007 3.08504 5.66483 3.05331 5.74667C2.98663 5.90897 2.98663 6.09103 3.05331 6.25333C3.08504 6.33517 3.13262 6.40993 3.19331 6.47333L5.85998 9.14C5.92196 9.20249 5.99569 9.25208 6.07693 9.28593C6.15817 9.31977 6.24531 9.3372 6.33331 9.3372C6.42132 9.3372 6.50846 9.31977 6.5897 9.28593C6.67094 9.25208 6.74467 9.20249 6.80665 9.14C6.86913 9.07802 6.91873 9.00429 6.95257 8.92305C6.98642 8.84181 7.00385 8.75467 7.00385 8.66667C7.00385 8.57866 6.98642 8.49152 6.95257 8.41028C6.91873 8.32904 6.86913 8.25531 6.80665 8.19333L5.27331 6.66667H13C13.1768 6.66667 13.3464 6.59643 13.4714 6.4714C13.5964 6.34638 13.6666 6.17681 13.6666 6C13.6666 5.82319 13.5964 5.65362 13.4714 5.5286C13.3464 5.40357 13.1768 5.33333 13 5.33333ZM0.99998 0C0.823169 0 0.653599 0.0702379 0.528575 0.195262C0.403551 0.320286 0.333313 0.489856 0.333313 0.666667V11.3333C0.333313 11.5101 0.403551 11.6797 0.528575 11.8047C0.653599 11.9298 0.823169 12 0.99998 12C1.17679 12 1.34636 11.9298 1.47138 11.8047C1.59641 11.6797 1.66665 11.5101 1.66665 11.3333V0.666667C1.66665 0.489856 1.59641 0.320286 1.47138 0.195262C1.34636 0.0702379 1.17679 0 0.99998 0Z" fill="#9999BC"/>
</svg>
