<svg width="14" height="14" viewBox="0 0 14 14" fill="none" xmlns="http://www.w3.org/2000/svg">
<path d="M12.2666 7.43997C12.1598 7.31831 12.1008 7.16191 12.1008 6.99997C12.1008 6.83803 12.1598 6.68163 12.2666 6.55997L13.12 5.59997C13.214 5.49508 13.2724 5.36311 13.2868 5.22298C13.3011 5.08284 13.2708 4.94176 13.2 4.81997L11.8666 2.5133C11.7966 2.39165 11.6899 2.29522 11.5618 2.23776C11.4337 2.1803 11.2908 2.16474 11.1533 2.1933L9.89997 2.44664C9.74049 2.47959 9.57447 2.45303 9.43323 2.37197C9.29199 2.29091 9.1853 2.16096 9.1333 2.00664L8.72664 0.786637C8.68191 0.654223 8.59671 0.539214 8.48306 0.457865C8.36941 0.376517 8.23307 0.332943 8.09331 0.333304H5.42664C5.28126 0.325716 5.13739 0.365922 5.01701 0.44778C4.89664 0.529639 4.80636 0.64865 4.75997 0.786637L4.38664 2.00664C4.33464 2.16096 4.22795 2.29091 4.08671 2.37197C3.94547 2.45303 3.77945 2.47959 3.61997 2.44664L2.3333 2.1933C2.20301 2.17489 2.07017 2.19545 1.95154 2.2524C1.8329 2.30934 1.73377 2.40012 1.66664 2.5133L0.333305 4.81997C0.260745 4.9404 0.22812 5.08069 0.240093 5.22079C0.252067 5.36088 0.308026 5.4936 0.399971 5.59997L1.24664 6.55997C1.35352 6.68163 1.41246 6.83803 1.41246 6.99997C1.41246 7.16191 1.35352 7.31831 1.24664 7.43997L0.399971 8.39997C0.308026 8.50634 0.252067 8.63906 0.240093 8.77915C0.22812 8.91925 0.260745 9.05954 0.333305 9.17997L1.66664 11.4866C1.7367 11.6083 1.84338 11.7047 1.97147 11.7622C2.09956 11.8196 2.24252 11.8352 2.37997 11.8066L3.6333 11.5533C3.79278 11.5204 3.95881 11.5469 4.10005 11.628C4.24129 11.709 4.34797 11.839 4.39997 11.9933L4.80664 13.2133C4.85302 13.3513 4.9433 13.4703 5.06368 13.5522C5.18406 13.634 5.32793 13.6742 5.4733 13.6666H8.13997C8.27973 13.667 8.41608 13.6234 8.52972 13.5421C8.64337 13.4607 8.72858 13.3457 8.7733 13.2133L9.17997 11.9933C9.23197 11.839 9.33866 11.709 9.4799 11.628C9.62114 11.5469 9.78716 11.5204 9.94664 11.5533L11.2 11.8066C11.3374 11.8352 11.4804 11.8196 11.6085 11.7622C11.7366 11.7047 11.8432 11.6083 11.9133 11.4866L13.2466 9.17997C13.3174 9.05818 13.3478 8.9171 13.3334 8.77697C13.3191 8.63684 13.2607 8.50486 13.1666 8.39997L12.2666 7.43997ZM11.2733 8.3333L11.8066 8.9333L10.9533 10.4133L10.1666 10.2533C9.68649 10.1552 9.18702 10.2367 8.76303 10.4825C8.33905 10.7283 8.02007 11.1212 7.86664 11.5866L7.61331 12.3333H5.90664L5.66664 11.5733C5.51321 11.1079 5.19423 10.715 4.77024 10.4692C4.34626 10.2234 3.84679 10.1418 3.36664 10.24L2.57997 10.4L1.7133 8.92664L2.24664 8.32664C2.57461 7.95996 2.75593 7.48526 2.75593 6.9933C2.75593 6.50135 2.57461 6.02665 2.24664 5.65997L1.7133 5.05997L2.56664 3.5933L3.3533 3.7533C3.83345 3.85145 4.33292 3.76989 4.75691 3.5241C5.18089 3.27832 5.49987 2.88541 5.6533 2.41997L5.90664 1.66664H7.61331L7.86664 2.42664C8.02007 2.89208 8.33905 3.28498 8.76303 3.53077C9.18702 3.77656 9.68649 3.85812 10.1666 3.75997L10.9533 3.59997L11.8066 5.07997L11.2733 5.67997C10.949 6.04581 10.77 6.51776 10.77 7.00664C10.77 7.49552 10.949 7.96746 11.2733 8.3333ZM6.75997 4.3333C6.23255 4.3333 5.71698 4.4897 5.27845 4.78272C4.83992 5.07574 4.49813 5.49221 4.29629 5.97948C4.09446 6.46675 4.04165 7.00293 4.14454 7.52021C4.24744 8.03749 4.50141 8.51265 4.87435 8.88559C5.24729 9.25853 5.72245 9.5125 6.23973 9.6154C6.75701 9.71829 7.29319 9.66548 7.78046 9.46365C8.26773 9.26182 8.68421 8.92002 8.97722 8.48149C9.27024 8.04296 9.42664 7.52739 9.42664 6.99997C9.42664 6.29273 9.14569 5.61445 8.64559 5.11435C8.14549 4.61426 7.46722 4.3333 6.75997 4.3333ZM6.75997 8.3333C6.49626 8.3333 6.23848 8.25511 6.01921 8.1086C5.79995 7.96209 5.62905 7.75385 5.52813 7.51021C5.42722 7.26658 5.40081 6.99849 5.45226 6.73985C5.50371 6.48121 5.63069 6.24363 5.81716 6.05716C6.00363 5.87069 6.24121 5.7437 6.49985 5.69226C6.75849 5.64081 7.02658 5.66721 7.27022 5.76813C7.51385 5.86905 7.72209 6.03994 7.8686 6.25921C8.01511 6.47848 8.09331 6.73626 8.09331 6.99997C8.09331 7.35359 7.95283 7.69273 7.70278 7.94278C7.45273 8.19283 7.11359 8.3333 6.75997 8.3333Z" fill="#9999BC"/>
</svg>
