<svg width="15" height="14" viewBox="0 0 15 14" fill="none" xmlns="http://www.w3.org/2000/svg">
<path d="M5.49998 6.33331C5.63184 6.33331 5.76073 6.29421 5.87036 6.22096C5.98 6.14771 6.06544 6.04359 6.1159 5.92177C6.16636 5.79995 6.17956 5.66591 6.15384 5.53659C6.12812 5.40727 6.06462 5.28848 5.97139 5.19524C5.87815 5.10201 5.75936 5.03851 5.63004 5.01279C5.50072 4.98707 5.36668 5.00027 5.24486 5.05073C5.12304 5.10119 5.01892 5.18663 4.94567 5.29627C4.87242 5.4059 4.83332 5.53479 4.83332 5.66665C4.83332 5.84346 4.90355 6.01303 5.02858 6.13805C5.1536 6.26308 5.32317 6.33331 5.49998 6.33331ZM9.49998 6.33331C9.63184 6.33331 9.76073 6.29421 9.87036 6.22096C9.98 6.14771 10.0654 6.04359 10.1159 5.92177C10.1664 5.79995 10.1796 5.66591 10.1538 5.53659C10.1281 5.40727 10.0646 5.28848 9.97139 5.19524C9.87815 5.10201 9.75936 5.03851 9.63004 5.01279C9.50072 4.98707 9.36668 5.00027 9.24486 5.05073C9.12304 5.10119 9.01892 5.18663 8.94567 5.29627C8.87241 5.4059 8.83332 5.53479 8.83332 5.66665C8.83332 5.84346 8.90355 6.01303 9.02858 6.13805C9.1536 6.26308 9.32317 6.33331 9.49998 6.33331ZM10.1666 8.33331C10.1666 8.1565 10.0964 7.98693 9.97139 7.86191C9.84636 7.73688 9.67679 7.66665 9.49998 7.66665C9.32317 7.66665 9.1536 7.73688 9.02858 7.86191C8.90355 7.98693 8.83332 8.1565 8.83332 8.33331H8.16665C8.16665 8.1565 8.09641 7.98693 7.97139 7.86191C7.84636 7.73688 7.67679 7.66665 7.49998 7.66665C7.32317 7.66665 7.1536 7.73688 7.02858 7.86191C6.90355 7.98693 6.83332 8.1565 6.83332 8.33331H6.16665C6.16665 8.1565 6.09641 7.98693 5.97139 7.86191C5.84636 7.73688 5.67679 7.66665 5.49998 7.66665C5.32317 7.66665 5.1536 7.73688 5.02858 7.86191C4.90355 7.98693 4.83332 8.1565 4.83332 8.33331C4.6565 8.33331 4.48694 8.40355 4.36191 8.52858C4.23689 8.6536 4.16665 8.82317 4.16665 8.99998C4.16665 9.17679 4.23689 9.34636 4.36191 9.47138C4.48694 9.59641 4.6565 9.66665 4.83332 9.66665C4.83332 9.84346 4.90355 10.013 5.02858 10.1381C5.1536 10.2631 5.32317 10.3333 5.49998 10.3333C5.67679 10.3333 5.84636 10.2631 5.97139 10.1381C6.09641 10.013 6.16665 9.84346 6.16665 9.66665H6.83332C6.83332 9.84346 6.90355 10.013 7.02858 10.1381C7.1536 10.2631 7.32317 10.3333 7.49998 10.3333C7.67679 10.3333 7.84636 10.2631 7.97139 10.1381C8.09641 10.013 8.16665 9.84346 8.16665 9.66665H8.83332C8.83332 9.84346 8.90355 10.013 9.02858 10.1381C9.1536 10.2631 9.32317 10.3333 9.49998 10.3333C9.67679 10.3333 9.84636 10.2631 9.97139 10.1381C10.0964 10.013 10.1666 9.84346 10.1666 9.66665C10.3435 9.66665 10.513 9.59641 10.6381 9.47138C10.7631 9.34636 10.8333 9.17679 10.8333 8.99998C10.8333 8.82317 10.7631 8.6536 10.6381 8.52858C10.513 8.40355 10.3435 8.33331 10.1666 8.33331ZM7.49998 0.333313C6.18144 0.333313 4.89251 0.724306 3.79618 1.45685C2.69985 2.18939 1.84537 3.23058 1.34079 4.44876C0.836202 5.66693 0.704179 7.00738 0.961414 8.30058C1.21865 9.59379 1.85359 10.7817 2.78594 11.714C3.71829 12.6464 4.90617 13.2813 6.19938 13.5385C7.49259 13.7958 8.83303 13.6638 10.0512 13.1592C11.2694 12.6546 12.3106 11.8001 13.0431 10.7038C13.7757 9.60745 14.1666 8.31852 14.1666 6.99998C14.1666 6.1245 13.9942 5.25759 13.6592 4.44876C13.3241 3.63992 12.8331 2.90499 12.214 2.28593C11.595 1.66688 10.86 1.17581 10.0512 0.840783C9.24237 0.505751 8.37546 0.333313 7.49998 0.333313ZM7.49998 12.3333C6.44515 12.3333 5.414 12.0205 4.53694 11.4345C3.65988 10.8484 2.97629 10.0155 2.57263 9.04096C2.16896 8.06642 2.06334 6.99406 2.26913 5.9595C2.47492 4.92493 2.98287 3.97462 3.72875 3.22874C4.47463 2.48286 5.42494 1.97491 6.4595 1.76912C7.49407 1.56334 8.56642 1.66895 9.54096 2.07262C10.5155 2.47629 11.3485 3.15988 11.9345 4.03694C12.5205 4.914 12.8333 5.94515 12.8333 6.99998C12.8333 8.41447 12.2714 9.77102 11.2712 10.7712C10.271 11.7714 8.91447 12.3333 7.49998 12.3333Z" fill="#9999BC"/>
</svg>
